name D:\school\WTK\thesis\model\3dpredictsim\Results\Batchsim_tmt_linear_v2\Pog_s1_tmt_aCst_d00_k1000_ig24_act.mot
datacolumns 128
datarows 4
range 1.26161739 1.29946591
endheader
time	pelvis_tilt	pelvis_list	pelvis_rotation	pelvis_tx	pelvis_ty	pelvis_tz	hip_flexion_l	hip_adduction_l	hip_rotation_l	hip_flexion_r	hip_adduction_r	hip_rotation_r	knee_angle_l	knee_angle_r	ankle_angle_l	ankle_angle_r	subtalar_angle_l	subtalar_angle_r	tmt_angle_l	tmt_angle_r	mtp_angle_l	mtp_angle_r	lumbar_extension	lumbar_bending	lumbar_rotation	arm_flex_l	arm_add_l	arm_rot_l	arm_flex_r	arm_add_r	arm_rot_r	elbow_flex_l	elbow_flex_r	pro_sup_l	pro_sup_r	glut_med1_l/activation	glut_med2_l/activation	glut_med3_l/activation	glut_min1_l/activation	glut_min2_l/activation	glut_min3_l/activation	semimem_l/activation	semiten_l/activation	bifemlh_l/activation	bifemsh_l/activation	sar_l/activation	add_long_l/activation	add_brev_l/activation	add_mag1_l/activation	add_mag2_l/activation	add_mag3_l/activation	tfl_l/activation	pect_l/activation	grac_l/activation	glut_max1_l/activation	glut_max2_l/activation	glut_max3_l/activation	iliacus_l/activation	psoas_l/activation	quad_fem_l/activation	gem_l/activation	peri_l/activation	rect_fem_l/activation	vas_med_l/activation	vas_int_l/activation	vas_lat_l/activation	med_gas_l/activation	lat_gas_l/activation	soleus_l/activation	tib_post_l/activation	flex_dig_l/activation	flex_hal_l/activation	tib_ant_l/activation	per_brev_l/activation	per_long_l/activation	per_tert_l/activation	ext_dig_l/activation	ext_hal_l/activation	ercspn_l/activation	intobl_l/activation	extobl_l/activation	glut_med1_r/activation	glut_med2_r/activation	glut_med3_r/activation	glut_min1_r/activation	glut_min2_r/activation	glut_min3_r/activation	semimem_r/activation	semiten_r/activation	bifemlh_r/activation	bifemsh_r/activation	sar_r/activation	add_long_r/activation	add_brev_r/activation	add_mag1_r/activation	add_mag2_r/activation	add_mag3_r/activation	tfl_r/activation	pect_r/activation	grac_r/activation	glut_max1_r/activation	glut_max2_r/activation	glut_max3_r/activation	iliacus_r/activation	psoas_r/activation	quad_fem_r/activation	gem_r/activation	peri_r/activation	rect_fem_r/activation	vas_med_r/activation	vas_int_r/activation	vas_lat_r/activation	med_gas_r/activation	lat_gas_r/activation	soleus_r/activation	tib_post_r/activation	flex_dig_r/activation	flex_hal_r/activation	tib_ant_r/activation	per_brev_r/activation	per_long_r/activation	per_tert_r/activation	ext_dig_r/activation	ext_hal_r/activation	ercspn_r/activation	intobl_r/activation	extobl_r/activation	
          1.26161739	          1.63419057	          2.19475012	          9.63930170	          1.57702173	          0.86539108	         -0.00221185	        -23.27016510	         -0.15212639	          3.06714120	         30.33891822	         -3.14020805	         -1.93462984	        -13.32034323	        -14.96618664	        -21.27898774	        -33.89192093	          2.31500261	         -3.46174052	          0.97687316	         -0.04641440	         40.81374110	         -0.23490834	         -0.52265630	         -6.29437026	         -2.32793748	        -13.57028647	        -14.04020106	         15.23100369	          1.18909431	        -13.50248658	         12.82974825	         13.55598620	         16.78990983	         86.51662706	         86.51662706	          0.14955274	          0.05000023	          0.05000014	          0.16129279	          0.06356070	          0.05000063	          0.06008542	          0.05000155	          0.05000125	          0.06050712	          0.07323843	          0.30827382	          0.16247901	          0.20508900	          0.05000514	          0.05000216	          0.10727658	          0.14049214	          0.05000916	          0.05000255	          0.05000173	          0.05000187	          0.37017622	          0.51488276	          0.05000032	          0.05000141	          0.05000072	          0.20530447	          0.08080841	          0.09045438	          0.06548815	          0.05000010	          0.09061820	          0.12509207	          0.15890157	          0.12985442	          0.14562022	          0.07527984	          0.24360192	          0.18589279	          0.48399811	          0.43662682	          0.15782877	          0.06031717	          0.05000013	          0.09330556	          0.07318090	          0.06019713	          0.06051358	          0.05000065	          0.05000104	          0.05000291	          0.09141766	          0.08863674	          0.08863731	          0.12265485	          0.06448295	          0.07006890	          0.05196184	          0.18155053	          0.18643881	          0.15851306	          0.05000048	          0.05000201	          0.11795884	          0.09528474	          0.14775036	          0.18961336	          0.11368265	          0.10727960	          0.13230807	          0.05013787	          0.05997783	          0.05000009	          0.05000025	          0.05000022	          0.05000015	          0.06051355	          0.06051359	          0.06551936	          0.13083620	          0.07512173	          0.09621327	          0.05000069	          0.09791628	          0.11561648	          0.10218824	          0.05000065	          0.05000167	          0.05000004	          0.21466437	          0.12028199	
          1.27423356	          1.65386626	          2.31402937	          9.57498595	          1.59898740	          0.86483394	         -0.00185248	        -22.95859006	         -0.33468868	          2.74934900	         30.07686980	         -2.95322004	         -1.76571608	        -15.45664050	        -16.53273003	        -24.62023839	        -31.73387787	          2.49572112	         -3.21735442	          0.74680480	          0.02399276	         40.92117221	          0.60725387	         -0.20959989	         -6.01188140	         -2.41146225	        -13.38445840	        -14.13551842	         15.25546046	         -0.92779692	        -13.46424037	         13.14264116	         13.18978984	         17.25912258	         86.51662706	         86.51662706	          0.15507233	          0.05000015	          0.05000006	          0.13327032	          0.05251809	          0.05000028	          0.09465920	          0.05000025	          0.05000048	          0.05000025	          0.06051465	          0.25471545	          0.28579864	          0.16945801	          0.05001292	          0.05000535	          0.08863871	          0.11608415	          0.05000097	          0.05000336	          0.05000255	          0.05000246	          0.30586265	          0.42542822	          0.05000021	          0.05000034	          0.05000012	          0.16963533	          0.06676916	          0.07473923	          0.05411055	          0.06051191	          0.07487482	          0.22277212	          0.13129437	          0.10729394	          0.12032053	          0.16695571	          0.28907059	          0.18447659	          0.64139680	          0.56731329	          0.13040803	          0.07220244	          0.05000002	          0.08976726	          0.10482928	          0.18782511	          0.05000035	          0.07734767	          0.06051409	          0.05000083	          0.07553497	          0.07323723	          0.07323768	          0.10134510	          0.05327995	          0.07323807	          0.08834527	          0.15000864	          0.15404762	          0.14100870	          0.05000049	          0.07323732	          0.09746515	          0.07873085	          0.20581040	          0.18936261	          0.09393172	          0.08864112	          0.10932133	          0.23053271	          0.34181847	          0.05000010	          0.05000075	          0.05000104	          0.24160384	          0.05000009	          0.05000013	          0.05413619	          0.16717583	          0.06207035	          0.07949750	          0.07323758	          0.08090469	          0.09552959	          0.19531659	          0.07323881	          0.07323883	          0.05000011	          0.17736909	          0.09938447	
          1.28684974	          1.67789478	          2.40953694	          9.46206231	          1.62075490	          0.86382226	         -0.00147283	        -22.38678836	         -0.49561315	          2.46412607	         29.63504378	         -2.72447310	         -1.58646112	        -18.08832190	        -18.67355649	        -27.23255656	        -28.65787420	          2.63676482	         -2.95742363	          0.59042790	          0.23295861	         39.03232961	          2.90619021	          0.07280381	         -5.67969126	         -2.48056780	        -13.14989866	        -14.21631057	         15.23552473	         -3.00928580	        -13.45605215	         13.55830408	         12.82256407	         17.68825716	         86.51662706	         86.51662706	          0.12813055	          0.05000199	          0.05000361	          0.11011637	          0.05000120	          0.05000220	          0.14503506	          0.05623153	          0.06177563	          0.05000028	          0.05000221	          0.21046193	          0.41630097	          0.29671193	          0.13684441	          0.15713555	          0.07323891	          0.09591654	          0.05000650	          0.05001130	          0.05001650	          0.06050749	          0.25272277	          0.35151529	          0.05000652	          0.05009632	          0.05000084	          0.14016327	          0.07422788	          0.08863542	          0.08116677	          0.05000030	          0.06186747	          0.18406834	          0.10848359	          0.08865312	          0.09941637	          0.18425316	          0.24870434	          0.16242912	          0.52996229	          0.76498164	          0.38664717	          0.08509521	          0.05173577	          0.08863713	          0.18505433	          0.26008822	          0.34928190	          0.06390967	          0.05000116	          0.30680445	          0.06241171	          0.06051319	          0.06051355	          0.08373765	          0.08340974	          0.06051394	          0.07299642	          0.12394657	          0.12728383	          0.11651035	          0.07323743	          0.06051402	          0.08053185	          0.12172975	          0.18362227	          0.15646326	          0.07761229	          0.07324087	          0.22639695	          0.19048070	          0.28243249	          0.07323788	          0.25656578	          0.23964658	          0.32440176	          0.12983176	          0.16204191	          0.10727494	          0.35847930	          0.47679874	          0.42285211	          0.06051345	          0.12983219	          0.13610306	          0.16138274	          0.06051447	          0.06051451	          0.05000002	          0.14655339	          0.08211764	
          1.29946591	          1.69916631	          2.47023805	          9.30523960	          1.64201049	          0.86285786	         -0.00105457	        -21.54813414	         -0.64562295	          2.22449798	         28.83825002	         -2.42348455	         -1.38506047	        -21.08997800	        -20.52298895	        -29.30102867	        -24.56007819	          2.71421638	         -2.60787756	          0.42478686	          0.45514765	         35.20986025	          5.16845765	          0.31235472	         -5.29706473	         -2.53437175	        -12.79301478	        -14.25687579	         15.15228124	         -4.99131908	        -13.45324849	         14.11093604	         12.39335217	         18.00911364	         86.51662706	         86.51662706	          0.10587099	          0.05000006	          0.05000003	          0.09098524	          0.05000041	          0.05000014	          0.19532010	          0.05000049	          0.05104337	          0.05000020	          0.05000126	          0.17389691	          0.42308278	          0.24516284	          0.11307317	          0.12983582	          0.06051471	          0.07925335	          0.05000044	          0.05000120	          0.05000082	          0.05000091	          0.20881529	          0.29044383	          0.05000007	          0.05000024	          0.05000010	          0.11581162	          0.07323641	          0.07323689	          0.06706583	          0.20028383	          0.10987611	          0.17155783	          0.08963591	          0.07325089	          0.08214405	          0.26393698	          0.28693046	          0.16753762	          0.69839985	          0.63207561	          0.31947201	          0.09448826	          0.05000001	          0.07323753	          0.22670935	          0.37522112	          0.48341878	          0.06121969	          0.18960902	          0.25350354	          0.05156847	          0.05000020	          0.05000017	          0.06918938	          0.06891887	          0.05000047	          0.06031424	          0.10241250	          0.10517001	          0.11476383	          0.06051352	          0.05000158	          0.06654061	          0.24319617	          0.21940969	          0.12928050	          0.06412813	          0.06051619	          0.27854780	          0.15738760	          0.25603257	          0.06051373	          0.21199132	          0.19801392	          0.34281838	          0.10727510	          0.13388913	          0.08863725	          0.35865042	          0.39398134	          0.34938692	          0.05000001	          0.10727545	          0.11245682	          0.13334450	          0.05000085	          0.05000093	          0.05000005	          0.12109153	          0.06785072	
